GSerif01-DisplayRegular01.ufo
<glyph name="two" format="1">
  <advance width="601"/>
  <unicode hex="0032"/>
  <outline>
    <contour>
      <point x="100" y="17" type="line"/>
      <point x="80" y="82" type="line"/>
      <point x="503" y="82" type="line"/>
      <point x="503" y="82" type="line"/>
      <point x="503" y="208" type="line"/>
      <point x="551" y="208" type="line"/>
      <point x="551" y="0" type="line"/>
      <point x="47" y="0" type="line"/>
      <point x="47" y="54" type="line" smooth="yes"/>
      <point x="47" y="317"/>
      <point x="424" y="272"/>
      <point x="424" y="538" type="curve"/>
      <point x="424" y="627"/>
      <point x="377" y="672"/>
      <point x="304" y="672" type="curve" smooth="yes"/>
      <point x="216" y="672"/>
      <point x="179" y="612"/>
      <point x="162" y="509" type="curve"/>
      <point x="54" y="509" type="line"/>
      <point x="73" y="637"/>
      <point x="167" y="720"/>
      <point x="306" y="720" type="curve" smooth="yes"/>
      <point x="443" y="720"/>
      <point x="531" y="645"/>
      <point x="531" y="527" type="curve"/>
      <point x="531" y="261"/>
      <point x="100" y="286"/>
      <point x="100" y="63" type="curve" smooth="yes"/>
    </contour>
  </outline>
</glyph>
<glyph name="C" format="1">
  <advance width="741"/>
  <unicode hex="0043"/>
  <outline>
    <contour>
      <point x="44" y="355" type="curve" smooth="yes"/>
      <point x="44" y="138"/>
      <point x="195" y="-10"/>
      <point x="395" y="-10" type="curve" smooth="yes"/>
      <point x="557" y="-10"/>
      <point x="669" y="87"/>
      <point x="703" y="226" type="curve"/>
      <point x="669" y="238" type="line"/>
      <point x="642" y="115"/>
      <point x="546" y="27"/>
      <point x="406" y="27" type="curve" smooth="yes"/>
      <point x="260" y="27"/>
      <point x="161" y="155"/>
      <point x="161" y="355" type="curve" smooth="yes"/>
      <point x="161" y="554"/>
      <point x="263" y="687"/>
      <point x="413" y="687" type="curve" smooth="yes"/>
      <point x="515" y="687"/>
      <point x="582" y="643"/>
      <point x="609" y="579" type="curve"/>
      <point x="617" y="616"/>
      <point x="595" y="651"/>
      <point x="566" y="651" type="curve"/>
      <point x="566" y="515" type="line"/>
      <point x="677" y="515" type="line"/>
      <point x="677" y="609" type="line"/>
      <point x="646" y="663"/>
      <point x="551" y="720"/>
      <point x="412" y="720" type="curve" smooth="yes"/>
      <point x="203" y="720"/>
      <point x="44" y="569"/>
    </contour>
  </outline>
</glyph>
<glyph name="K" format="1">
  <advance width="740"/>
  <unicode hex="004B"/>
  <outline>
    <contour>
      <point x="47" y="0" type="line"/>
      <point x="323" y="0" type="line"/>
      <point x="323" y="31" type="line"/>
      <point x="315" y="31" type="line" smooth="yes"/>
      <point x="282" y="31"/>
      <point x="239" y="34"/>
      <point x="239" y="41" type="curve"/>
      <point x="131" y="67" type="line"/>
      <point x="131" y="38"/>
      <point x="94" y="31"/>
      <point x="52" y="31" type="curve" smooth="yes"/>
      <point x="47" y="31" type="line"/>
    </contour>
    <contour>
      <point x="47" y="710" type="line"/>
      <point x="47" y="679" type="line"/>
      <point x="52" y="679" type="line" smooth="yes"/>
      <point x="93" y="679"/>
      <point x="131" y="672"/>
      <point x="131" y="643" type="curve"/>
      <point x="239" y="669" type="line"/>
      <point x="239" y="676"/>
      <point x="282" y="679"/>
      <point x="315" y="679" type="curve" smooth="yes"/>
      <point x="323" y="679" type="line"/>
      <point x="323" y="710" type="line"/>
    </contour>
    <contour>
      <point x="557" y="0" type="line"/>
      <point x="684" y="5" type="line"/>
      <point x="346" y="412" type="line"/>
      <point x="307" y="352" type="line"/>
      <point x="635" y="703" type="line"/>
      <point x="595" y="710" type="line"/>
      <point x="264" y="356" type="line"/>
      <point x="267" y="350" type="line"/>
    </contour>
    <contour>
      <point x="726" y="31" type="line"/>
      <point x="720" y="31" type="line" smooth="yes"/>
      <point x="670" y="31"/>
      <point x="657" y="37"/>
      <point x="632" y="67" type="curve"/>
      <point x="522" y="41" type="line"/>
      <point x="522" y="34"/>
      <point x="477" y="31"/>
      <point x="452" y="31" type="curve" smooth="yes"/>
      <point x="440" y="31" type="line"/>
      <point x="440" y="0" type="line"/>
      <point x="726" y="0" type="line"/>
    </contour>
    <contour>
      <point x="677" y="710" type="line"/>
      <point x="470" y="710" type="line"/>
      <point x="470" y="679" type="line"/>
      <point x="482" y="679" type="line" smooth="yes"/>
      <point x="511" y="679"/>
      <point x="552" y="672"/>
      <point x="552" y="664" type="curve"/>
      <point x="574" y="637" type="line"/>
      <point x="603" y="669"/>
      <point x="617" y="679"/>
      <point x="671" y="679" type="curve" smooth="yes"/>
      <point x="677" y="679" type="line"/>
    </contour>
    <contour>
      <point x="131" y="0" type="line"/>
      <point x="239" y="0" type="line"/>
      <point x="239" y="710" type="line"/>
      <point x="131" y="710" type="line"/>
    </contour>
  </outline>
</glyph>
<glyph name="P" format="1">
  <advance width="644"/>
  <unicode hex="0050"/>
  <outline>
    <contour>
      <point x="131" y="0" type="line"/>
      <point x="239" y="0" type="line"/>
      <point x="239" y="710" type="line"/>
      <point x="131" y="710" type="line"/>
    </contour>
    <contour>
      <point x="47" y="0" type="line"/>
      <point x="340" y="0" type="line"/>
      <point x="340" y="31" type="line"/>
      <point x="323" y="31" type="line"/>
      <point x="286" y="31"/>
      <point x="239" y="34"/>
      <point x="239" y="55" type="curve"/>
      <point x="131" y="67" type="line"/>
      <point x="131" y="38"/>
      <point x="94" y="31"/>
      <point x="52" y="31" type="curve" smooth="yes"/>
      <point x="47" y="31" type="line"/>
    </contour>
    <contour>
      <point x="47" y="710" type="line"/>
      <point x="47" y="679" type="line"/>
      <point x="52" y="679" type="line" smooth="yes"/>
      <point x="93" y="679"/>
      <point x="131" y="672"/>
      <point x="131" y="643" type="curve"/>
      <point x="188" y="675" type="line"/>
      <point x="336" y="675" type="line" smooth="yes"/>
      <point x="439" y="675"/>
      <point x="493" y="619"/>
      <point x="493" y="509" type="curve"/>
      <point x="493" y="401"/>
      <point x="439" y="336"/>
      <point x="329" y="336" type="curve" smooth="yes"/>
      <point x="189" y="336" type="line"/>
      <point x="189" y="303" type="line"/>
      <point x="336" y="303" type="line" smooth="yes"/>
      <point x="502" y="303"/>
      <point x="605" y="384"/>
      <point x="605" y="511" type="curve"/>
      <point x="605" y="638"/>
      <point x="507" y="710"/>
      <point x="343" y="710" type="curve" smooth="yes"/>
    </contour>
  </outline>
</glyph>
<glyph name="W" format="1">
  <advance width="1011"/>
  <unicode hex="0057"/>
  <outline>
    <contour>
      <point x="169" y="710" type="line"/>
      <point x="64" y="710" type="line"/>
      <point x="240" y="0" type="line"/>
      <point x="312" y="0" type="line"/>
      <point x="323" y="46" type="line"/>
    </contour>
    <contour>
      <point x="15" y="710" type="line"/>
      <point x="15" y="679" type="line"/>
      <point x="19" y="679" type="line" smooth="yes"/>
      <point x="50" y="679"/>
      <point x="72" y="675"/>
      <point x="80" y="644" type="curve"/>
      <point x="178" y="669" type="line"/>
      <point x="178" y="676"/>
      <point x="222" y="679"/>
      <point x="261" y="679" type="curve" smooth="yes"/>
      <point x="280" y="679" type="line"/>
      <point x="280" y="710" type="line"/>
    </contour>
    <contour>
      <point x="938" y="710" type="line"/>
      <point x="899" y="710" type="line"/>
      <point x="719" y="0" type="line"/>
      <point x="757" y="0" type="line"/>
    </contour>
    <contour>
      <point x="996" y="710" type="line"/>
      <point x="783" y="710" type="line"/>
      <point x="783" y="679" type="line"/>
      <point x="813" y="679" type="line" smooth="yes"/>
      <point x="868" y="679"/>
      <point x="885" y="667"/>
      <point x="885" y="655" type="curve"/>
      <point x="913" y="610" type="line"/>
      <point x="925" y="659"/>
      <point x="956" y="679"/>
      <point x="990" y="679" type="curve" smooth="yes"/>
      <point x="996" y="679" type="line"/>
    </contour>
    <contour>
      <point x="568" y="710" type="line"/>
      <point x="507" y="710" type="line"/>
      <point x="291" y="0" type="line"/>
      <point x="330" y="0" type="line"/>
      <point x="520" y="628" type="line"/>
      <point x="495" y="615" type="line"/>
      <point x="669" y="0" type="line"/>
      <point x="741" y="0" type="line"/>
      <point x="752" y="45" type="line"/>
    </contour>
  </outline>
</glyph>
<glyph name="X" format="1">
  <advance width="708"/>
  <unicode hex="0058"/>
  <outline>
    <contour>
      <point x="83" y="705" type="line"/>
      <point x="307" y="342" type="line"/>
      <point x="311" y="340" type="line"/>
      <point x="524" y="0" type="line"/>
      <point x="640" y="7" type="line"/>
      <point x="393" y="396" type="line"/>
      <point x="390" y="398" type="line"/>
      <point x="200" y="710" type="line"/>
    </contour>
    <contour>
      <point x="318" y="378" type="line"/>
      <point x="68" y="6" type="line"/>
      <point x="109" y="0" type="line"/>
      <point x="339" y="346" type="line"/>
    </contour>
    <contour>
      <point x="379" y="355" type="line"/>
      <point x="608" y="706" type="line"/>
      <point x="566" y="710" type="line"/>
      <point x="357" y="385" type="line"/>
    </contour>
    <contour>
      <point x="653" y="710" type="line"/>
      <point x="439" y="710" type="line"/>
      <point x="439" y="679" type="line"/>
      <point x="455" y="679" type="line" smooth="yes"/>
      <point x="513" y="679"/>
      <point x="532" y="668"/>
      <point x="532" y="656" type="curve"/>
      <point x="548" y="616" type="line"/>
      <point x="580" y="663"/>
      <point x="597" y="679"/>
      <point x="643" y="679" type="curve" smooth="yes"/>
      <point x="653" y="679" type="line"/>
    </contour>
    <contour>
      <point x="23" y="0" type="line"/>
      <point x="236" y="0" type="line"/>
      <point x="236" y="31" type="line"/>
      <point x="220" y="31" type="line" smooth="yes"/>
      <point x="164" y="31"/>
      <point x="143" y="42"/>
      <point x="143" y="53" type="curve"/>
      <point x="126" y="93" type="line"/>
      <point x="98" y="51"/>
      <point x="79" y="31"/>
      <point x="31" y="31" type="curve" smooth="yes"/>
      <point x="23" y="31" type="line"/>
    </contour>
    <contour>
      <point x="42" y="679" type="line"/>
      <point x="47" y="679" type="line" smooth="yes"/>
      <point x="84" y="679"/>
      <point x="101" y="674"/>
      <point x="121" y="643" type="curve"/>
      <point x="226" y="667" type="line"/>
      <point x="226" y="674"/>
      <point x="270" y="679"/>
      <point x="302" y="679" type="curve" smooth="yes"/>
      <point x="317" y="679" type="line"/>
      <point x="317" y="710" type="line"/>
      <point x="42" y="710" type="line"/>
    </contour>
    <contour>
      <point x="685" y="0" type="line"/>
      <point x="685" y="31" type="line"/>
      <point x="677" y="31" type="line" smooth="yes"/>
      <point x="639" y="31"/>
      <point x="621" y="37"/>
      <point x="602" y="67" type="curve"/>
      <point x="497" y="43" type="line"/>
      <point x="497" y="36"/>
      <point x="453" y="31"/>
      <point x="420" y="31" type="curve" smooth="yes"/>
      <point x="406" y="31" type="line"/>
      <point x="406" y="0" type="line"/>
    </contour>
  </outline>
</glyph>
<glyph name="Y" format="1">
  <advance width="638"/>
  <unicode hex="0059"/>
  <outline>
    <contour>
      <point x="272" y="0" type="line"/>
      <point x="381" y="0" type="line"/>
      <point x="381" y="338" type="line"/>
      <point x="272" y="337" type="line"/>
    </contour>
    <contour>
      <point x="581" y="703" type="line"/>
      <point x="543" y="710" type="line"/>
      <point x="335" y="314" type="line"/>
      <point x="369" y="343" type="line"/>
      <point x="157" y="710" type="line"/>
      <point x="52" y="704" type="line"/>
      <point x="295" y="286" type="line"/>
      <point x="356" y="280" type="line"/>
    </contour>
    <contour>
      <point x="616" y="710" type="line"/>
      <point x="422" y="710" type="line"/>
      <point x="422" y="679" type="line"/>
      <point x="447" y="679" type="line" smooth="yes"/>
      <point x="496" y="679"/>
      <point x="514" y="668"/>
      <point x="514" y="656" type="curve"/>
      <point x="534" y="615" type="line"/>
      <point x="559" y="660"/>
      <point x="580" y="679"/>
      <point x="610" y="679" type="curve" smooth="yes"/>
      <point x="616" y="679" type="line"/>
    </contour>
    <contour>
      <point x="21" y="710" type="line"/>
      <point x="21" y="679" type="line"/>
      <point x="26" y="679" type="line" smooth="yes"/>
      <point x="52" y="679"/>
      <point x="69" y="675"/>
      <point x="87" y="644" type="curve"/>
      <point x="183" y="665" type="line"/>
      <point x="183" y="675"/>
      <point x="224" y="679"/>
      <point x="256" y="679" type="curve" smooth="yes"/>
      <point x="271" y="679" type="line"/>
      <point x="271" y="710" type="line"/>
    </contour>
    <contour>
      <point x="179" y="0" type="line"/>
      <point x="474" y="0" type="line"/>
      <point x="474" y="31" type="line"/>
      <point x="460" y="31" type="line" smooth="yes"/>
      <point x="418" y="31"/>
      <point x="381" y="38"/>
      <point x="381" y="67" type="curve"/>
      <point x="272" y="67" type="line"/>
      <point x="272" y="38"/>
      <point x="234" y="31"/>
      <point x="193" y="31" type="curve" smooth="yes"/>
      <point x="179" y="31" type="line"/>
    </contour>
  </outline>
</glyph>
<glyph name="n" format="1">
  <advance width="673"/>
  <unicode hex="006E"/>
  <outline>
    <contour>
      <point x="40" y="0" type="line"/>
      <point x="297" y="0" type="line"/>
      <point x="297" y="31" type="line"/>
      <point x="297" y="31" type="line"/>
      <point x="270" y="31"/>
      <point x="224" y="34"/>
      <point x="224" y="40" type="curve"/>
      <point x="122" y="67" type="line"/>
      <point x="122" y="38"/>
      <point x="86" y="31"/>
      <point x="41" y="31" type="curve"/>
      <point x="40" y="31" type="line"/>
    </contour>
    <contour>
      <point x="40" y="540" type="line"/>
      <point x="40" y="510" type="line"/>
      <point x="51" y="508" type="line" smooth="yes"/>
      <point x="98" y="499"/>
      <point x="122" y="492"/>
      <point x="122" y="463" type="curve" smooth="yes"/>
      <point x="122" y="0" type="line"/>
      <point x="224" y="0" type="line"/>
      <point x="224" y="430" type="line"/>
      <point x="217" y="437" type="line"/>
      <point x="217" y="540" type="line"/>
    </contour>
    <contour>
      <point x="647" y="0" type="line"/>
      <point x="647" y="31" type="line"/>
      <point x="646" y="31" type="line"/>
      <point x="601" y="31"/>
      <point x="566" y="38"/>
      <point x="566" y="67" type="curve"/>
      <point x="464" y="40" type="line"/>
      <point x="464" y="34"/>
      <point x="418" y="31"/>
      <point x="391" y="31" type="curve"/>
      <point x="391" y="31" type="line"/>
      <point x="391" y="0" type="line"/>
    </contour>
    <contour>
      <point x="464" y="0" type="line"/>
      <point x="566" y="0" type="line"/>
      <point x="566" y="388" type="line" smooth="yes"/>
      <point x="566" y="500"/>
      <point x="499" y="550"/>
      <point x="400" y="550" type="curve" smooth="yes"/>
      <point x="301" y="550"/>
      <point x="243" y="495"/>
      <point x="186" y="400" type="curve"/>
      <point x="187" y="397"/>
      <point x="203" y="377"/>
      <point x="203" y="377" type="curve"/>
      <point x="252" y="461"/>
      <point x="308" y="508"/>
      <point x="377" y="508" type="curve" smooth="yes"/>
      <point x="443" y="508"/>
      <point x="464" y="475"/>
      <point x="464" y="389" type="curve" smooth="yes"/>
    </contour>
  </outline>
</glyph>
<glyph name="s" format="1">
  <advance width="509"/>
  <unicode hex="0073"/>
  <outline>
    <contour>
      <point x="378" y="128" type="curve"/>
      <point x="378" y="63"/>
      <point x="337" y="24"/>
      <point x="256" y="24" type="curve" smooth="yes"/>
      <point x="195" y="24"/>
      <point x="139" y="42"/>
      <point x="115" y="95" type="curve"/>
      <point x="103" y="58"/>
      <point x="109" y="48"/>
      <point x="135" y="34" type="curve"/>
      <point x="135" y="158" type="line"/>
      <point x="41" y="158" type="line"/>
      <point x="41" y="75" type="line"/>
      <point x="79" y="22"/>
      <point x="159" y="-11"/>
      <point x="261" y="-11" type="curve" smooth="yes"/>
      <point x="391" y="-11"/>
      <point x="468" y="60"/>
      <point x="468" y="151" type="curve" smooth="yes"/>
      <point x="468" y="360"/>
      <point x="150" y="269"/>
      <point x="150" y="420" type="curve" smooth="yes"/>
      <point x="150" y="474"/>
      <point x="185" y="516"/>
      <point x="258" y="516" type="curve" smooth="yes"/>
      <point x="307" y="516"/>
      <point x="350" y="498"/>
      <point x="371" y="452" type="curve"/>
      <point x="378" y="477"/>
      <point x="370" y="507"/>
      <point x="345" y="504" type="curve"/>
      <point x="345" y="405" type="line"/>
      <point x="437" y="405" type="line"/>
      <point x="437" y="405"/>
      <point x="437" y="473"/>
      <point x="437" y="474" type="curve"/>
      <point x="411" y="517"/>
      <point x="343" y="550"/>
      <point x="254" y="550" type="curve" smooth="yes"/>
      <point x="135" y="550"/>
      <point x="61" y="487"/>
      <point x="61" y="395" type="curve" smooth="yes"/>
      <point x="61" y="181"/>
      <point x="378" y="270"/>
    </contour>
  </outline>
</glyph>
<glyph name="w" format="1">
  <advance width="848"/>
  <unicode hex="0077"/>
  <outline>
    <contour>
      <point x="275" y="0" type="line"/>
      <point x="291" y="43" type="line"/>
      <point x="152" y="540" type="line"/>
      <point x="49" y="540" type="line"/>
      <point x="209" y="0" type="line"/>
    </contour>
    <contour>
      <point x="242" y="540" type="line"/>
      <point x="14" y="540" type="line"/>
      <point x="14" y="510" type="line"/>
      <point x="15" y="510" type="line"/>
      <point x="37" y="510"/>
      <point x="60" y="503"/>
      <point x="69" y="473" type="curve"/>
      <point x="163" y="500" type="line"/>
      <point x="163" y="507"/>
      <point x="208" y="510"/>
      <point x="241" y="510" type="curve"/>
      <point x="242" y="510" type="line"/>
    </contour>
    <contour>
      <point x="647" y="0" type="line"/>
      <point x="798" y="540" type="line"/>
      <point x="757" y="540" type="line"/>
      <point x="617" y="32" type="line"/>
      <point x="627" y="0" type="line"/>
    </contour>
    <contour>
      <point x="666" y="540" type="line"/>
      <point x="666" y="510" type="line"/>
      <point x="668" y="510" type="line"/>
      <point x="700" y="510"/>
      <point x="743" y="502"/>
      <point x="743" y="490" type="curve"/>
      <point x="777" y="462" type="line"/>
      <point x="786" y="497"/>
      <point x="809" y="510"/>
      <point x="833" y="510" type="curve"/>
      <point x="834" y="510" type="line"/>
      <point x="834" y="540" type="line"/>
    </contour>
    <contour>
      <point x="418" y="540" type="line"/>
      <point x="262" y="32" type="line"/>
      <point x="266" y="0" type="line"/>
      <point x="292" y="0" type="line"/>
      <point x="440" y="485" type="line"/>
      <point x="411" y="491" type="line"/>
      <point x="566" y="0" type="line"/>
      <point x="636" y="0" type="line"/>
      <point x="647" y="43" type="line"/>
      <point x="491" y="540" type="line"/>
    </contour>
  </outline>
</glyph>
<glyph name="y" format="1">
  <advance width="586"/>
  <unicode hex="0079"/>
  <outline>
    <contour>
      <point x="325" y="15" type="line"/>
      <point x="348" y="70" type="line"/>
      <point x="156" y="528" type="line"/>
      <point x="54" y="526" type="line"/>
      <point x="293" y="-35" type="line"/>
    </contour>
    <contour>
      <point x="342" y="20" type="curve" smooth="yes"/>
      <point x="536" y="525" type="line"/>
      <point x="491" y="528" type="line"/>
      <point x="319" y="75" type="line"/>
      <point x="319" y="73"/>
      <point x="302" y="43"/>
      <point x="299" y="35" type="curve" smooth="yes"/>
      <point x="235" y="-139"/>
      <point x="189" y="-146"/>
      <point x="48" y="-137" type="curve"/>
      <point x="48" y="-232" type="line"/>
      <point x="207" y="-234"/>
      <point x="273" y="-159"/>
    </contour>
    <contour>
      <point x="9" y="540" type="line"/>
      <point x="9" y="510" type="line"/>
      <point x="10" y="510" type="line"/>
      <point x="40" y="510"/>
      <point x="63" y="505"/>
      <point x="75" y="475" type="curve"/>
      <point x="168" y="500" type="line"/>
      <point x="168" y="507"/>
      <point x="212" y="510"/>
      <point x="244" y="510" type="curve"/>
      <point x="246" y="510" type="line"/>
      <point x="246" y="540" type="line"/>
    </contour>
    <contour>
      <point x="577" y="540" type="line"/>
      <point x="401" y="540" type="line"/>
      <point x="401" y="510" type="line"/>
      <point x="402" y="510" type="line"/>
      <point x="435" y="510"/>
      <point x="474" y="499"/>
      <point x="474" y="483" type="curve"/>
      <point x="511" y="460" type="line"/>
      <point x="525" y="496"/>
      <point x="548" y="510"/>
      <point x="576" y="510" type="curve"/>
      <point x="577" y="510" type="line"/>
    </contour>
  </outline>
</glyph>
<glyph name="z" format="1">
  <advance width="508"/>
  <unicode hex="007A"/>
  <outline>
    <contour>
      <point x="94" y="34" type="line"/>
      <point x="129" y="17" type="line"/>
      <point x="468" y="504" type="line"/>
      <point x="468" y="540" type="line"/>
      <point x="53" y="540" type="line"/>
      <point x="53" y="376" type="line"/>
      <point x="85" y="376" type="line"/>
      <point x="104" y="454" type="line" smooth="yes"/>
      <point x="115" y="497"/>
      <point x="142" y="506"/>
      <point x="216" y="506" type="curve" smooth="yes"/>
      <point x="403" y="506" type="line"/>
      <point x="376" y="525" type="line"/>
      <point x="35" y="41" type="line"/>
      <point x="35" y="0" type="line"/>
      <point x="475" y="0" type="line"/>
      <point x="475" y="175" type="line"/>
      <point x="441" y="175" type="line"/>
      <point x="421" y="86" type="line" smooth="yes"/>
      <point x="411" y="44"/>
      <point x="383" y="34"/>
      <point x="309" y="34" type="curve" smooth="yes"/>
    </contour>
  </outline>
</glyph>
<glyph name="endash" format="1">
  <advance width="614"/>
  <unicode hex="2013"/>
  <outline>
    <contour>
      <point x="82" y="338" type="line"/>
      <point x="82" y="292" type="line"/>
      <point x="531" y="292" type="line"/>
      <point x="531" y="338" type="line"/>
    </contour>
  </outline>
</glyph>
<glyph name="C.srf" format="1">
  <advance width="735"/>
  <outline>
    <contour>
      <point x="404" y="685" type="curve" smooth="yes"/>
      <point x="521" y="685"/>
      <point x="610" y="610"/>
      <point x="653" y="492" type="curve"/>
      <point x="687" y="492" type="line"/>
      <point x="687" y="710" type="line"/>
      <point x="646" y="710" type="line"/>
      <point x="632" y="567" type="line"/>
      <point x="634" y="565"/>
      <point x="656" y="554"/>
      <point x="660" y="552" type="curve"/>
      <point x="630" y="644"/>
      <point x="520" y="720"/>
      <point x="401" y="720" type="curve" smooth="yes"/>
      <point x="196" y="720"/>
      <point x="44" y="568"/>
      <point x="44" y="355" type="curve" smooth="yes"/>
      <point x="44" y="138"/>
      <point x="194" y="-10"/>
      <point x="398" y="-10" type="curve" smooth="yes"/>
      <point x="553" y="-10"/>
      <point x="664" y="87"/>
      <point x="698" y="226" type="curve"/>
      <point x="666" y="240" type="line"/>
      <point x="633" y="112"/>
      <point x="540" y="27"/>
      <point x="407" y="27" type="curve" smooth="yes"/>
      <point x="255" y="27"/>
      <point x="161" y="155"/>
      <point x="161" y="355" type="curve" smooth="yes"/>
      <point x="161" y="554"/>
      <point x="258" y="685"/>
    </contour>
  </outline>
</glyph>
<glyph name="F.alt" format="1">
  <advance width="611"/>
  <outline>
    <contour>
      <point x="131" y="0" type="line"/>
      <point x="239" y="0" type="line"/>
      <point x="239" y="710" type="line"/>
      <point x="131" y="710" type="line"/>
    </contour>
    <contour>
      <point x="47" y="710" type="line"/>
      <point x="47" y="675" type="line"/>
      <point x="52" y="675" type="line" smooth="yes"/>
      <point x="93" y="675"/>
      <point x="131" y="668"/>
      <point x="131" y="639" type="curve"/>
      <point x="193" y="675" type="line"/>
      <point x="378" y="675" type="line" smooth="yes"/>
      <point x="467" y="675"/>
      <point x="501" y="662"/>
      <point x="509" y="621" type="curve" smooth="yes"/>
      <point x="528" y="522" type="line"/>
      <point x="561" y="522" type="line"/>
      <point x="561" y="710" type="line"/>
    </contour>
    <contour>
      <point x="47" y="0" type="line"/>
      <point x="341" y="0" type="line"/>
      <point x="341" y="35" type="line"/>
      <point x="325" y="35" type="line" smooth="yes"/>
      <point x="286" y="35"/>
      <point x="239" y="38"/>
      <point x="239" y="58" type="curve"/>
      <point x="131" y="71" type="line"/>
      <point x="131" y="42"/>
      <point x="94" y="35"/>
      <point x="52" y="35" type="curve" smooth="yes"/>
      <point x="47" y="35" type="line"/>
    </contour>
    <contour>
      <point x="204" y="370" type="line"/>
      <point x="204" y="335" type="line"/>
      <point x="440" y="335" type="line"/>
      <point x="436" y="370" type="line"/>
    </contour>
    <contour>
      <point x="463" y="263" type="line"/>
      <point x="463" y="443" type="line"/>
      <point x="432" y="443" type="line"/>
      <point x="432" y="437" type="line"/>
      <point x="432" y="400"/>
      <point x="422" y="370"/>
      <point x="393" y="370" type="curve"/>
      <point x="393" y="335" type="line"/>
      <point x="422" y="335"/>
      <point x="432" y="305"/>
      <point x="432" y="269" type="curve"/>
      <point x="432" y="263" type="line"/>
    </contour>
  </outline>
</glyph>
<glyph name="K.alt" format="1">
  <advance width="749"/>
  <outline>
    <contour>
      <point x="560" y="0" type="line"/>
      <point x="669" y="2" type="line"/>
      <point x="679" y="9" type="line"/>
      <point x="378" y="423" type="line"/>
      <point x="364" y="385" type="line"/>
      <point x="624" y="696" type="line"/>
      <point x="628" y="708" type="line"/>
      <point x="593" y="710" type="line"/>
      <point x="303" y="365" type="line"/>
      <point x="306" y="357" type="line"/>
    </contour>
    <contour>
      <point x="131" y="0" type="line"/>
      <point x="239" y="0" type="line"/>
      <point x="239" y="710" type="line"/>
      <point x="131" y="710" type="line"/>
    </contour>
    <contour>
      <point x="47" y="710" type="line"/>
      <point x="47" y="679" type="line"/>
      <point x="52" y="679" type="line" smooth="yes"/>
      <point x="93" y="679"/>
      <point x="131" y="672"/>
      <point x="131" y="643" type="curve"/>
      <point x="239" y="669" type="line"/>
      <point x="239" y="676"/>
      <point x="282" y="679"/>
      <point x="315" y="679" type="curve" smooth="yes"/>
      <point x="323" y="679" type="line"/>
      <point x="323" y="710" type="line"/>
    </contour>
    <contour>
      <point x="679" y="710" type="line"/>
      <point x="471" y="710" type="line"/>
      <point x="471" y="679" type="line"/>
      <point x="483" y="679" type="line" smooth="yes"/>
      <point x="520" y="679"/>
      <point x="553" y="671"/>
      <point x="553" y="663" type="curve"/>
      <point x="575" y="637" type="line"/>
      <point x="599" y="666"/>
      <point x="627" y="679"/>
      <point x="673" y="679" type="curve" smooth="yes"/>
      <point x="679" y="679" type="line"/>
    </contour>
    <contour>
      <point x="47" y="0" type="line"/>
      <point x="323" y="0" type="line"/>
      <point x="323" y="31" type="line"/>
      <point x="315" y="31" type="line" smooth="yes"/>
      <point x="282" y="31"/>
      <point x="239" y="34"/>
      <point x="239" y="41" type="curve"/>
      <point x="131" y="67" type="line"/>
      <point x="131" y="38"/>
      <point x="94" y="31"/>
      <point x="52" y="31" type="curve" smooth="yes"/>
      <point x="47" y="31" type="line"/>
    </contour>
    <contour>
      <point x="735" y="0" type="line"/>
      <point x="735" y="31" type="line"/>
      <point x="729" y="31" type="line" smooth="yes"/>
      <point x="678" y="31"/>
      <point x="658" y="38"/>
      <point x="636" y="68" type="curve"/>
      <point x="531" y="41" type="line"/>
      <point x="531" y="34"/>
      <point x="492" y="31"/>
      <point x="460" y="31" type="curve" smooth="yes"/>
      <point x="448" y="31" type="line"/>
      <point x="448" y="0" type="line"/>
    </contour>
    <contour>
      <point x="220" y="390" type="line"/>
      <point x="220" y="352" type="line"/>
      <point x="348" y="352" type="line"/>
      <point x="345" y="390" type="line"/>
    </contour>
  </outline>
</glyph>
<glyph name="Q.alt4" format="1">
  <advance width="796"/>
  <outline>
    <contour>
      <point x="398" y="-10" type="curve" smooth="yes"/>
      <point x="596" y="-10"/>
      <point x="752" y="139"/>
      <point x="752" y="355" type="curve" smooth="yes"/>
      <point x="752" y="572"/>
      <point x="596" y="720"/>
      <point x="398" y="720" type="curve" smooth="yes"/>
      <point x="199" y="720"/>
      <point x="44" y="572"/>
      <point x="44" y="355" type="curve" smooth="yes"/>
      <point x="44" y="139"/>
      <point x="199" y="-10"/>
    </contour>
    <contour>
      <point x="398" y="25" type="curve" smooth="yes"/>
      <point x="260" y="25"/>
      <point x="161" y="152"/>
      <point x="161" y="355" type="curve" smooth="yes"/>
      <point x="161" y="558"/>
      <point x="260" y="685"/>
      <point x="398" y="685" type="curve" smooth="yes"/>
      <point x="537" y="685"/>
      <point x="635" y="558"/>
      <point x="635" y="355" type="curve" smooth="yes"/>
      <point x="635" y="152"/>
      <point x="537" y="25"/>
    </contour>
    <contour>
      <point x="384" y="-6" type="line"/>
      <point x="376" y="-132"/>
      <point x="467" y="-189"/>
      <point x="582" y="-189" type="curve" smooth="yes"/>
      <point x="629" y="-189"/>
      <point x="680" y="-182"/>
      <point x="726" y="-172" type="curve"/>
      <point x="726" y="-72" type="line"/>
      <point x="676" y="-88"/>
      <point x="629" y="-105"/>
      <point x="563" y="-105" type="curve" smooth="yes"/>
      <point x="475" y="-105"/>
      <point x="415" y="-81"/>
      <point x="422" y="10" type="curve"/>
    </contour>
  </outline>
</glyph>
<glyph name="W.alt" format="1">
  <advance width="1059"/>
  <outline>
    <contour>
      <point x="254" y="0" type="line"/>
      <point x="327" y="0" type="line"/>
      <point x="338" y="46" type="line"/>
      <point x="163" y="710" type="line"/>
      <point x="58" y="710" type="line"/>
    </contour>
    <contour>
      <point x="8" y="710" type="line"/>
      <point x="8" y="679" type="line"/>
      <point x="13" y="679" type="line" smooth="yes"/>
      <point x="40" y="679"/>
      <point x="67" y="676"/>
      <point x="76" y="644" type="curve"/>
      <point x="174" y="667" type="line"/>
      <point x="174" y="674"/>
      <point x="214" y="679"/>
      <point x="255" y="679" type="curve" smooth="yes"/>
      <point x="274" y="679" type="line"/>
      <point x="274" y="710" type="line"/>
    </contour>
    <contour>
      <point x="993" y="702" type="line"/>
      <point x="956" y="710" type="line"/>
      <point x="763" y="0" type="line"/>
      <point x="800" y="-8" type="line"/>
    </contour>
    <contour>
      <point x="1051" y="710" type="line"/>
      <point x="838" y="710" type="line"/>
      <point x="838" y="679" type="line"/>
      <point x="868" y="679" type="line" smooth="yes"/>
      <point x="925" y="679"/>
      <point x="941" y="667"/>
      <point x="941" y="655" type="curve"/>
      <point x="969" y="615" type="line"/>
      <point x="982" y="664"/>
      <point x="1013" y="679"/>
      <point x="1044" y="679" type="curve" smooth="yes"/>
      <point x="1051" y="679" type="line"/>
    </contour>
    <contour>
      <point x="518" y="710" type="line"/>
      <point x="314" y="0" type="line"/>
      <point x="353" y="0" type="line"/>
      <point x="541" y="662" type="line"/>
      <point x="521" y="645" type="line"/>
      <point x="705" y="0" type="line"/>
      <point x="777" y="0" type="line"/>
      <point x="788" y="45" type="line"/>
      <point x="600" y="710" type="line"/>
    </contour>
    <contour>
      <point x="699" y="710" type="line"/>
      <point x="419" y="710" type="line"/>
      <point x="419" y="679" type="line"/>
      <point x="438" y="679" type="line" smooth="yes"/>
      <point x="472" y="679"/>
      <point x="506" y="675"/>
      <point x="506" y="668" type="curve"/>
      <point x="611" y="668" type="line"/>
      <point x="611" y="675"/>
      <point x="646" y="679"/>
      <point x="680" y="679" type="curve" smooth="yes"/>
      <point x="699" y="679" type="line"/>
    </contour>
  </outline>
</glyph>
<glyph name="four.alt" format="1">
  <advance width="609"/>
  <outline>
    <contour>
      <point x="244" y="43" type="line"/>
      <point x="244" y="0" type="line"/>
      <point x="583" y="0" type="line"/>
      <point x="583" y="43" type="line"/>
      <point x="466" y="43" type="line"/>
      <point x="466" y="43" type="line"/>
      <point x="361" y="43" type="line"/>
      <point x="361" y="43" type="line"/>
    </contour>
    <contour>
      <point x="361" y="515" type="line"/>
      <point x="361" y="0" type="line"/>
      <point x="466" y="0" type="line"/>
      <point x="466" y="515" type="line"/>
    </contour>
    <contour>
      <point x="31" y="188" type="line"/>
      <point x="592" y="188" type="line"/>
      <point x="592" y="231" type="line"/>
      <point x="60" y="231" type="line"/>
      <point x="66" y="214" type="line"/>
      <point x="468" y="710" type="line"/>
      <point x="355" y="710" type="line"/>
      <point x="31" y="235" type="line"/>
    </contour>
  </outline>
</glyph>
<glyph name="g.alt" format="1">
  <advance width="640"/>
  <outline>
    <contour>
      <point x="150" y="275" type="curve" smooth="yes"/>
      <point x="150" y="417"/>
      <point x="203" y="509"/>
      <point x="301" y="509" type="curve" smooth="yes"/>
      <point x="384" y="509"/>
      <point x="445" y="465"/>
      <point x="491" y="372" type="curve"/>
      <point x="492" y="371"/>
      <point x="521" y="379"/>
      <point x="522" y="379" type="curve"/>
      <point x="460" y="499"/>
      <point x="395" y="550"/>
      <point x="293" y="550" type="curve" smooth="yes"/>
      <point x="141" y="550"/>
      <point x="42" y="437"/>
      <point x="42" y="275" type="curve" smooth="yes"/>
      <point x="42" y="114"/>
      <point x="140" y="5"/>
      <point x="286" y="5" type="curve" smooth="yes"/>
      <point x="390" y="5"/>
      <point x="451" y="67"/>
      <point x="519" y="188" type="curve"/>
      <point x="518" y="188"/>
      <point x="491" y="200"/>
      <point x="491" y="199" type="curve"/>
      <point x="443" y="104"/>
      <point x="383" y="47"/>
      <point x="298" y="47" type="curve" smooth="yes"/>
      <point x="204" y="47"/>
      <point x="150" y="137"/>
    </contour>
    <contour>
      <point x="567" y="16" type="curve" smooth="yes"/>
      <point x="567" y="548" type="line"/>
      <point x="532" y="548" type="line"/>
      <point x="471" y="442" type="line"/>
      <point x="465" y="432" type="line"/>
      <point x="465" y="12" type="line" smooth="yes"/>
      <point x="465" y="-132"/>
      <point x="397" y="-195"/>
      <point x="295" y="-195" type="curve" smooth="yes"/>
      <point x="214" y="-195"/>
      <point x="153" y="-159"/>
      <point x="133" y="-111" type="curve"/>
      <point x="127" y="-152"/>
      <point x="141" y="-177"/>
      <point x="168" y="-179" type="curve"/>
      <point x="168" y="-64" type="line"/>
      <point x="66" y="-64" type="line"/>
      <point x="66" y="-142" type="line"/>
      <point x="99" y="-189"/>
      <point x="194" y="-231"/>
      <point x="296" y="-231" type="curve" smooth="yes"/>
      <point x="462" y="-231"/>
      <point x="567" y="-142"/>
    </contour>
  </outline>
</glyph>
<glyph name="j.alt" format="1">
  <advance width="331"/>
  <outline>
    <contour>
      <point x="171" y="637" type="curve" smooth="yes"/>
      <point x="210" y="637"/>
      <point x="238" y="661"/>
      <point x="238" y="701" type="curve" smooth="yes"/>
      <point x="238" y="740"/>
      <point x="210" y="765"/>
      <point x="171" y="765" type="curve" smooth="yes"/>
      <point x="131" y="765"/>
      <point x="102" y="740"/>
      <point x="102" y="701" type="curve" smooth="yes"/>
      <point x="102" y="661"/>
      <point x="131" y="637"/>
    </contour>
    <contour>
      <point x="122" y="-46" type="line" smooth="yes"/>
      <point x="122" y="-154"/>
      <point x="89" y="-206"/>
      <point x="22" y="-206" type="curve" smooth="yes"/>
      <point x="-20" y="-206"/>
      <point x="-55" y="-191"/>
      <point x="-74" y="-157" type="curve"/>
      <point x="-88" y="-175"/>
      <point x="-70" y="-201"/>
      <point x="-42" y="-201" type="curve"/>
      <point x="-42" y="-98" type="line"/>
      <point x="-135" y="-98" type="line"/>
      <point x="-135" y="-171" type="line"/>
      <point x="-110" y="-203"/>
      <point x="-52" y="-232"/>
      <point x="22" y="-232" type="curve" smooth="yes"/>
      <point x="138" y="-232"/>
      <point x="224" y="-168"/>
      <point x="224" y="-35" type="curve" smooth="yes"/>
      <point x="224" y="540" type="line"/>
      <point x="39" y="540" type="line"/>
      <point x="39" y="510" type="line"/>
      <point x="51" y="508" type="line" smooth="yes"/>
      <point x="98" y="499"/>
      <point x="122" y="492"/>
      <point x="122" y="463" type="curve" smooth="yes"/>
    </contour>
  </outline>
</glyph>
<glyph name="k.alt" format="1">
  <advance width="649"/>
  <outline>
    <contour>
      <point x="328" y="332" type="line"/>
      <point x="314" y="294" type="line"/>
      <point x="549" y="509" type="line"/>
      <point x="538" y="529" type="line"/>
      <point x="509" y="527" type="line"/>
      <point x="250" y="290" type="line"/>
      <point x="249" y="283" type="line"/>
      <point x="499" y="0" type="line"/>
      <point x="583" y="0" type="line"/>
      <point x="602" y="26" type="line"/>
    </contour>
    <contour>
      <point x="41" y="0" type="line"/>
      <point x="294" y="0" type="line"/>
      <point x="294" y="31" type="line"/>
      <point x="293" y="31" type="line"/>
      <point x="258" y="31"/>
      <point x="224" y="37"/>
      <point x="224" y="64" type="curve"/>
      <point x="122" y="67" type="line"/>
      <point x="122" y="38"/>
      <point x="87" y="31"/>
      <point x="42" y="31" type="curve"/>
      <point x="41" y="31" type="line"/>
    </contour>
    <contour>
      <point x="644" y="0" type="line"/>
      <point x="644" y="31" type="line"/>
      <point x="643" y="31" type="line"/>
      <point x="615" y="31"/>
      <point x="590" y="41"/>
      <point x="564" y="68" type="curve"/>
      <point x="462" y="42" type="line"/>
      <point x="462" y="36"/>
      <point x="422" y="31"/>
      <point x="404" y="31" type="curve"/>
      <point x="404" y="31" type="line"/>
      <point x="404" y="0" type="line"/>
    </contour>
    <contour>
      <point x="603" y="540" type="line"/>
      <point x="401" y="540" type="line"/>
      <point x="401" y="510" type="line"/>
      <point x="401" y="510" type="line"/>
      <point x="438" y="510"/>
      <point x="467" y="502"/>
      <point x="467" y="488" type="curve"/>
      <point x="493" y="458" type="line"/>
      <point x="531" y="492"/>
      <point x="560" y="510"/>
      <point x="602" y="510" type="curve"/>
      <point x="603" y="510" type="line"/>
    </contour>
    <contour>
      <point x="122" y="0" type="line"/>
      <point x="224" y="0" type="line"/>
      <point x="224" y="750" type="line"/>
      <point x="40" y="750" type="line"/>
      <point x="40" y="719" type="line"/>
      <point x="51" y="717" type="line" smooth="yes"/>
      <point x="98" y="708"/>
      <point x="122" y="701"/>
      <point x="122" y="672" type="curve" smooth="yes"/>
    </contour>
    <contour>
      <point x="301" y="266" type="line"/>
      <point x="301" y="307" type="line"/>
      <point x="165" y="307" type="line"/>
      <point x="165" y="266" type="line"/>
    </contour>
  </outline>
</glyph>
<glyph name="seven.alt" format="1">
  <advance width="536"/>
  <outline>
    <contour>
      <point x="141" y="0" type="line"/>
      <point x="463" y="643" type="line"/>
      <point x="476" y="628" type="line"/>
      <point x="92" y="628" type="line"/>
      <point x="92" y="628" type="line"/>
      <point x="92" y="500" type="line"/>
      <point x="43" y="500" type="line"/>
      <point x="43" y="710" type="line"/>
      <point x="517" y="710" type="line"/>
      <point x="517" y="631" type="line"/>
      <point x="259" y="0" type="line"/>
    </contour>
  </outline>
</glyph>
<glyph name="two.alt" format="1">
  <advance width="601"/>
  <outline>
    <contour>
      <point x="74" y="31" type="curve"/>
      <point x="85" y="46"/>
      <point x="94" y="66"/>
      <point x="105" y="80" type="curve"/>
      <point x="510" y="80" type="line"/>
      <point x="510" y="80" type="line"/>
      <point x="510" y="208" type="line"/>
      <point x="558" y="208" type="line"/>
      <point x="558" y="0" type="line"/>
      <point x="29" y="0" type="line"/>
      <point x="29" y="52" type="line"/>
      <point x="262" y="220"/>
      <point x="412" y="354"/>
      <point x="412" y="532" type="curve" smooth="yes"/>
      <point x="412" y="619"/>
      <point x="365" y="672"/>
      <point x="297" y="672" type="curve" smooth="yes"/>
      <point x="214" y="672"/>
      <point x="175" y="610"/>
      <point x="154" y="509" type="curve"/>
      <point x="45" y="509" type="line"/>
      <point x="67" y="636"/>
      <point x="157" y="720"/>
      <point x="298" y="720" type="curve" smooth="yes"/>
      <point x="433" y="720"/>
      <point x="522" y="646"/>
      <point x="522" y="531" type="curve" smooth="yes"/>
      <point x="522" y="360"/>
      <point x="316" y="203"/>
    </contour>
  </outline>
</glyph>
<glyph name="zero.old" format="1">
  <advance width="642"/>
  <outline>
    <contour>
      <point x="322" y="537" type="curve"/>
      <point x="165" y="537"/>
      <point x="39" y="424"/>
      <point x="39" y="263" type="curve" smooth="yes"/>
      <point x="39" y="102"/>
      <point x="165" y="-12"/>
      <point x="322" y="-12" type="curve"/>
      <point x="477" y="-12"/>
      <point x="603" y="102"/>
      <point x="603" y="262" type="curve" smooth="yes"/>
      <point x="603" y="423"/>
      <point x="477" y="537"/>
    </contour>
    <contour>
      <point x="322" y="488" type="curve"/>
      <point x="422" y="488"/>
      <point x="494" y="398"/>
      <point x="494" y="262" type="curve" smooth="yes"/>
      <point x="494" y="126"/>
      <point x="422" y="37"/>
      <point x="322" y="37" type="curve"/>
      <point x="220" y="37"/>
      <point x="148" y="127"/>
      <point x="148" y="263" type="curve" smooth="yes"/>
      <point x="148" y="399"/>
      <point x="220" y="488"/>
    </contour>
  </outline>
</glyph>
